PathFileType	4	(x/y/z)	S08_M20_T15
DataRate	CameraRate	NumFrames	NumMarkers	Units	OrigDataRate	OrigDataStartFrame	OrigNumFrames
240	240	6	51	mm	240	382	509
Frame#	Time	Sternum			R.Acromium			L.Acromium			Top.Head			R.ASIS			L.ASIS			R.PSIS			L.PSIS			R.Great.Tro			L.Great.Tro			R.Iliac.Crest			L.Iliac.Crest			V.Sacral			R.Thigh.Upper.Post			R.Thigh.Lower.Ant			R.Thigh.Lower.Post			R.Thigh.Upper.Ant			R.Knee.Lat			R.Knee.Med			R.Shank.Upper.Post			R.Shank.Lower.Ant			R.Shank.Lower.Post			R.Shank.Upper.Ant			R.Ankle.Lat			R.Ankle.Med			R.Heel.Upper			R.Heel.Med			R.Heel.Lat			R.Toe.Lat			R.Toe.Med			R.Toe.Tip			L.Thigh.Upper.Post			L.Thigh.Lower.Ant			L.Thigh.Lower.Post			L.Thigh.Upper.Ant			L.Knee.Lat			L.Knee.Med			L.Shank.Upper.Post			L.Shank.Lower.Ant			L.Shank.Lower.Post			L.Shank.Upper.Ant			L.Ankle.Lat			L.Ankle.Med			L.Heel.Upper			L.Heel.Med			L.Heel.Lat			L.Toe.Lat			L.Toe.Med			L.Toe.Tip			Cervical.Spine			Back			
		X1	Y1	Z1	X2	Y2	Z2	X3	Y3	Z3	X4	Y4	Z4	X5	Y5	Z5	X6	Y6	Z6	X7	Y7	Z7	X8	Y8	Z8	X9	Y9	Z9	X10	Y10	Z10	X11	Y11	Z11	X12	Y12	Z12	X13	Y13	Z13	X14	Y14	Z14	X15	Y15	Z15	X16	Y16	Z16	X17	Y17	Z17	X18	Y18	Z18	X19	Y19	Z19	X20	Y20	Z20	X21	Y21	Z21	X22	Y22	Z22	X23	Y23	Z23	X24	Y24	Z24	X25	Y25	Z25	X26	Y26	Z26	X27	Y27	Z27	X28	Y28	Z28	X29	Y29	Z29	X30	Y30	Z30	X31	Y31	Z31	X32	Y32	Z32	X33	Y33	Z33	X34	Y34	Z34	X35	Y35	Z35	X36	Y36	Z36	X37	Y37	Z37	X38	Y38	Z38	X39	Y39	Z39	X40	Y40	Z40	X41	Y41	Z41	X42	Y42	Z42	X43	Y43	Z43	X44	Y44	Z44	X45	Y45	Z45	X46	Y46	Z46	X47	Y47	Z47	X48	Y48	Z48	X49	Y49	Z49	X50	Y50	Z50	X51	Y51	Z51	

382	1.5875	417.12	1230.7	314.49	301.08	1464	488.68	274.89	1486.8	152.77	296.95	1781.5	330.55	404.25	1010.4	427.5	411.07	1021.6	195.59	206.36	1038.1	349.24	211.68	1047.4	255.9	333.02	893.2	492.43	328.28	917.56	121.77	307.18	1075.8	474	313.15	1102.2	163.95	191.88	1002.3	298.3	347.33	691.28	483.36	441.9	605.21	465.59	369.92	603.79	468.52	425.87	698.68	481.26	415.96	508.4	463.1	403.62	505.54	330.86	253.4	424.52	476.28	247.01	335.44	460.36	194.6	373.5	474.76	305.75	387.73	465.84	68.984	265.01	450.99	99.224	245.49	373.64	14.995	278.2	400.21	1.2279	252.66	373.27	-3.7959	262.14	434.6	NaN	NaN	NaN	110.52	103.89	372.74	161.86	67.36	421.89	339.95	699.76	146.8	436.55	625.26	178.28	368.84	616.19	169.45	412.88	707.22	149.8	397.13	519.58	194.84	392.47	524.83	319.06	336.48	338.85	199.06	401.17	251.66	227.34	331.48	266.98	217.81	400.11	326.08	208	345.93	97.316	240.38	370.87	104.94	326.56	294.75	75.563	294.26	309.9	41.514	324.64	300.57	47.657	261.09	475.49	41.012	221.06	498.64	43.079	336.2	559.77	62.749	284.6	221.52	1518.6	317.84	183.13	1232	330.11
383	1.5917	421.51	1231.3	314.13	305.7	1464.6	488.47	279.7	1487.6	152.6	301.96	1782.1	330.53	408.98	1011.3	426.94	415.37	1022.1	195.03	210.88	1038.5	349.07	216.12	1047.8	255.76	338.39	894.15	492.21	332.24	917.88	121.57	311.84	1076.5	473.62	317.38	1102.7	163.56	196.43	1002.7	298.17	355.11	692.32	483.51	450.6	607.35	465.28	378.62	605.07	468.54	433.59	700.62	481	425.61	510.16	462.75	412.96	507.27	330.62	263.91	424.48	476.02	258.65	335.28	460.19	205.71	372.74	474.66	316.71	388.33	465.62	81.457	262.59	450.73	112.04	243.32	373.56	26.939	274.3	399.97	13.733	248.25	373.27	8.5955	258.06	434.51	NaN	NaN	NaN	126.36	102.03	373.63	178.61	67.042	423.02	342.6	700.2	146.72	438.69	624.99	178.14	370.94	616.42	169.33	415.53	707.09	149.72	398.53	519.55	194.79	394.09	524.85	318.96	337.25	338.99	199.12	401.74	251.62	227.41	332.07	267.13	217.93	400.86	326.04	208.03	346.05	97.475	240.52	370.99	104.93	326.72	294.82	75.644	294.34	309.89	41.542	324.66	300.63	47.771	261.14	475.56	40.948	221.04	498.77	42.722	336.24	559.97	62.215	284.62	226.24	1519.3	317.65	187.56	1232.7	329.71
384	1.5958	425.9	1231.9	313.77	310.31	1465.1	488.28	284.51	1488.4	152.43	306.97	1782.6	330.51	413.7	1012.1	426.38	419.66	1022.6	194.47	215.38	1039	348.91	220.53	1048.1	255.62	343.77	895.07	491.99	336.21	918.16	121.38	316.49	1077.3	473.25	321.59	1103.1	163.18	200.96	1003.1	298.06	362.87	693.38	483.7	459.25	609.5	464.94	387.28	606.38	468.59	441.28	702.56	480.7	435.18	511.94	462.39	422.19	509.01	330.38	274.4	424.34	475.76	270.31	335.06	460.02	216.85	371.87	474.55	327.66	388.88	465.38	94.04	259.99	450.51	124.94	241.03	373.47	39.009	270.2	399.77	26.382	243.66	373.3	21.134	253.76	434.46	NaN	NaN	NaN	142.35	100.12	374.45	195.51	66.697	424.04	345.24	700.63	146.64	440.82	624.72	178.01	373.04	616.65	169.21	418.17	706.95	149.65	399.93	519.51	194.73	395.76	524.86	318.87	338.02	339.14	199.17	402.3	251.58	227.47	332.66	267.29	218.05	401.61	325.99	208.04	346.18	97.624	240.66	371.11	104.92	326.86	294.9	75.725	294.42	309.87	41.57	324.67	300.69	47.881	261.19	475.62	40.886	221.03	498.9	42.384	336.27	560.16	61.705	284.63	230.95	1519.9	317.45	191.99	1233.5	329.31
385	1.6	430.28	1232.4	313.4	314.92	1465.7	488.08	289.31	1489.1	152.27	311.97	1783.1	330.49	418.43	1013	425.82	423.94	1023	193.91	219.87	1039.3	348.77	224.93	1048.4	255.5	349.15	895.98	491.78	340.17	918.42	121.2	321.13	1077.9	472.88	325.78	1103.5	162.8	205.48	1003.4	297.96	370.61	694.45	483.91	467.84	611.65	464.57	395.88	607.71	468.66	448.94	704.5	480.38	444.67	513.72	462.01	431.29	510.75	330.14	284.86	424.12	475.52	282	334.78	459.84	228.01	370.89	474.43	338.6	389.38	465.13	106.73	257.21	450.31	137.95	238.61	373.37	51.208	265.92	399.61	39.18	238.9	373.36	33.824	249.25	434.45	NaN	NaN	NaN	158.5	98.184	375.19	212.55	66.334	424.95	347.86	701.05	146.57	442.94	624.44	177.87	375.13	616.88	169.09	420.79	706.8	149.56	401.32	519.48	194.68	397.48	524.88	318.77	338.79	339.29	199.21	402.86	251.54	227.52	333.24	267.45	218.15	402.36	325.94	208.05	346.31	97.764	240.8	371.21	104.91	326.99	294.97	75.806	294.5	309.85	41.6	324.68	300.75	47.987	261.23	475.69	40.826	221.02	499.02	42.066	336.3	560.33	61.221	284.64	235.66	1520.6	317.27	196.41	1234.1	328.91
386	1.6042	434.66	1232.8	313.04	319.53	1466.1	487.89	294.11	1489.8	152.12	316.96	1783.6	330.47	423.15	1013.7	425.27	428.2	1023.4	193.35	224.34	1039.7	348.64	229.31	1048.6	255.38	354.52	896.86	491.57	344.14	918.64	121.04	325.77	1078.6	472.52	329.97	1103.9	162.42	209.98	1003.7	297.87	378.32	695.52	484.13	476.37	613.8	464.17	404.45	609.05	468.75	456.56	706.42	480.04	454.07	515.51	461.61	440.25	512.49	329.9	295.29	423.82	475.28	293.72	334.42	459.65	239.21	369.79	474.32	349.52	389.83	464.87	119.54	254.27	450.14	151.05	236.08	373.28	63.541	261.45	399.49	52.131	233.98	373.45	46.67	244.55	434.48	NaN	NaN	NaN	174.79	96.218	375.85	229.72	65.958	425.74	350.47	701.47	146.51	445.06	624.17	177.72	377.22	617.1	168.97	423.39	706.65	149.47	402.72	519.44	194.61	399.23	524.89	318.68	339.55	339.44	199.24	403.41	251.51	227.56	333.82	267.62	218.24	403.1	325.9	208.04	346.45	97.894	240.94	371.29	104.9	327.11	295.05	75.886	294.58	309.82	41.631	324.69	300.8	48.09	261.27	475.74	40.767	221	499.13	41.769	336.33	560.5	60.763	284.65	240.36	1521.2	317.09	200.83	1234.8	328.51
387	1.6083	439.04	1233.3	312.68	324.15	1466.6	487.71	298.9	1490.5	151.97	321.95	1784.1	330.45	427.86	1014.5	424.73	432.45	1023.8	192.8	228.81	1040	348.53	233.67	1048.9	255.28	359.89	897.72	491.36	348.11	918.84	120.9	330.41	1079.2	472.17	334.14	1104.2	162.05	214.46	1004	297.8	385.99	696.6	484.37	484.82	615.93	463.75	412.95	610.4	468.84	464.15	708.32	479.66	463.39	517.3	461.2	449.08	514.23	329.66	305.71	423.43	475.06	305.46	334.01	459.46	250.45	368.57	474.2	360.42	390.23	464.6	132.47	251.17	450	164.24	233.43	373.18	76.013	256.82	399.4	65.239	228.92	373.56	59.674	239.67	434.55	NaN	NaN	NaN	191.21	94.236	376.42	247.01	65.575	426.41	353.07	701.89	146.46	447.17	623.89	177.57	379.31	617.32	168.85	425.98	706.5	149.37	404.12	519.41	194.54	401	524.89	318.58	340.31	339.59	199.26	403.97	251.47	227.59	334.39	267.79	218.31	403.83	325.86	208.03	346.59	98.014	241.07	371.36	104.9	327.21	295.12	75.966	294.64	309.79	41.665	324.69	300.86	48.19	261.31	475.8	40.711	220.99	499.24	41.496	336.35	560.66	60.332	284.65	245.05	1521.7	316.91	205.23	1235.4	328.11
